<svg version="1.2" xmlns="http://www.w3.org/2000/svg" viewBox="0 0 159 158" width="159" height="158">
	<title>gimp template</title>
	<style>
		.s0 { fill: #000000 } 
		.s1 { fill: #ffffff } 
		.s2 { fill: #1f52d4 } 
	</style>
	<path id="GRAPHICSFAMILY.com copy" fill-rule="evenodd" class="s0" d="m1385 0v651h-1454v-651z"/>
	<path id="jmr" class="s1" aria-label="jmr"  d="m22.4 19h12.3v48.5q0 7.6-4 11.9-4.1 4.2-11.7 4.2-3.1 0-6-0.8v-9.7q2.2 0.4 3.8 0.4 5.6 0 5.6-5.9zm-1-11.9q0-2.8 1.8-4.5 1.9-1.8 5.1-1.8 3.2 0 5 1.8 1.9 1.7 1.9 4.5 0 2.8-1.9 4.6-1.9 1.8-5 1.8-3.1 0-5-1.8-1.9-1.8-1.9-4.6zm22.9 11.9h11.5l0.4 5.1q4.9-6 13.2-6 8.9 0 12.2 7.1 4.9-7.1 13.8-7.1 7.5 0 11.1 4.4 3.7 4.4 3.7 13.1v29.4h-12.3v-29.4q0-3.9-1.5-5.6-1.6-1.9-5.4-1.9-5.6 0-7.7 5.3l0.1 31.6h-12.3v-29.3q0-4-1.6-5.8-1.6-1.8-5.3-1.8-5.3 0-7.6 4.4v32.5h-12.3zm101.3-0.3l-0.1 11.8q-2.5-0.4-4.5-0.4-6.9 0-9.1 4.7v30.1h-12.3v-45.9h11.6l0.4 5.4q3.7-6.3 10.2-6.3 2 0 3.8 0.6z"/>
	<path id="carré 1" fill-rule="evenodd" class="s2" d="m47 95v38.6h-45v-38.6z"/>
	<path id="carré 2" fill-rule="evenodd" class="s2" d="m102 95v38.6h-45v-38.6z"/>
	<path id="carré 3" fill-rule="evenodd" class="s2" d="m156 95v38.6h-45v-38.6z"/>
</svg>